<svg xmlns="http://www.w3.org/2000/svg" viewBox="0 0 1600 900" fill="none">
  <defs>
    <linearGradient id="bg" x1="0" y1="0" x2="1600" y2="900" gradientUnits="userSpaceOnUse">
      <stop stop-color="#07111e"/>
      <stop offset="0.62" stop-color="#030916"/>
      <stop offset="1" stop-color="#01050d"/>
    </linearGradient>
    <radialGradient id="ringCore" cx="0" cy="0" r="1" gradientUnits="userSpaceOnUse" gradientTransform="translate(412 420) rotate(16) scale(430 380)">
      <stop offset="0.37" stop-color="#000007"/>
      <stop offset="0.49" stop-color="#020611"/>
      <stop offset="0.55" stop-color="#d8e9ff"/>
      <stop offset="0.6" stop-color="#fff9f0"/>
      <stop offset="0.67" stop-color="#b8eef6" stop-opacity="0.88"/>
      <stop offset="0.79" stop-color="#1c436e" stop-opacity="0.34"/>
      <stop offset="1" stop-color="#020814" stop-opacity="0"/>
    </radialGradient>
    <radialGradient id="void" cx="0" cy="0" r="1" gradientUnits="userSpaceOnUse" gradientTransform="translate(356 458) scale(176 192)">
      <stop stop-color="#010205"/>
      <stop offset="1" stop-color="#000000"/>
    </radialGradient>
    <linearGradient id="beam" x1="548" y1="394" x2="1168" y2="356" gradientUnits="userSpaceOnUse">
      <stop stop-color="#eef5ff" stop-opacity="0.9"/>
      <stop offset="0.18" stop-color="#e1eeff" stop-opacity="0.74"/>
      <stop offset="0.48" stop-color="#8eaaca" stop-opacity="0.28"/>
      <stop offset="1" stop-color="#3d5372" stop-opacity="0"/>
    </linearGradient>
    <radialGradient id="beamBloom" cx="0" cy="0" r="1" gradientUnits="userSpaceOnUse" gradientTransform="translate(1015 420) rotate(-8) scale(420 146)">
      <stop stop-color="#dbe8ff" stop-opacity="0.55"/>
      <stop offset="0.26" stop-color="#c2dcff" stop-opacity="0.32"/>
      <stop offset="1" stop-color="#091427" stop-opacity="0"/>
    </radialGradient>
    <filter id="blur18" x="-30%" y="-30%" width="160%" height="160%">
      <feGaussianBlur stdDeviation="18"/>
    </filter>
    <filter id="blur34" x="-40%" y="-40%" width="180%" height="180%">
      <feGaussianBlur stdDeviation="34"/>
    </filter>
    <filter id="blur56" x="-50%" y="-50%" width="200%" height="200%">
      <feGaussianBlur stdDeviation="56"/>
    </filter>
    <filter id="blur84" x="-60%" y="-60%" width="220%" height="220%">
      <feGaussianBlur stdDeviation="84"/>
    </filter>
  </defs>

  <rect width="1600" height="900" fill="url(#bg)"/>

  <g filter="url(#blur84)" opacity="0.38">
    <ellipse cx="386" cy="426" rx="456" ry="392" transform="rotate(15 386 426)" fill="none" stroke="#6da6d4" stroke-width="42"/>
  </g>
  <g filter="url(#blur56)" opacity="0.76">
    <ellipse cx="392" cy="420" rx="392" ry="340" transform="rotate(15 392 420)" fill="none" stroke="#e9f5ff" stroke-width="26"/>
    <ellipse cx="402" cy="418" rx="402" ry="350" transform="rotate(15 402 418)" fill="none" stroke="#9ee8f2" stroke-width="16"/>
  </g>

  <ellipse cx="414" cy="420" rx="430" ry="380" transform="rotate(15 414 420)" fill="url(#ringCore)"/>
  <ellipse cx="356" cy="458" rx="174" ry="190" fill="url(#void)"/>

  <g filter="url(#blur18)" opacity="0.82">
    <path d="M150 410C182 294 280 206 442 172" stroke="#f7f1e9" stroke-width="16" stroke-linecap="round"/>
    <path d="M176 616C236 750 366 830 540 820" stroke="#fff7f0" stroke-width="12" stroke-linecap="round" opacity="0.72"/>
    <path d="M522 142C658 168 752 238 796 354" stroke="#fefbf8" stroke-width="10" stroke-linecap="round" opacity="0.62"/>
  </g>

  <g filter="url(#blur34)" opacity="0.9">
    <path d="M210 332C272 262 376 220 484 244C564 264 626 318 656 402" stroke="#d8e4f7" stroke-width="18" stroke-linecap="round"/>
    <path d="M242 552C318 628 432 646 534 614C608 591 666 536 698 460" stroke="#c7d7ef" stroke-width="18" stroke-linecap="round" opacity="0.8"/>
    <path d="M270 364C344 310 448 294 534 328C596 352 640 404 660 470" stroke="#f2f6ff" stroke-width="8" stroke-linecap="round" opacity="0.9"/>
  </g>

  <path d="M520 392C604 394 694 395 812 386C944 376 1066 336 1196 256" stroke="url(#beam)" stroke-width="26" stroke-linecap="round" filter="url(#blur18)"/>
  <path d="M564 378C650 404 786 416 908 398C1026 380 1144 334 1276 282" stroke="#f4f8ff" stroke-width="8" stroke-linecap="round" opacity="0.8" filter="url(#blur34)"/>
  <ellipse cx="1010" cy="422" rx="420" ry="146" fill="url(#beamBloom)" filter="url(#blur56)"/>

  <g filter="url(#blur34)" opacity="0.92">
    <path d="M1022 248C1090 208 1139 236 1172 320C1194 378 1186 432 1144 468C1102 505 1058 493 1032 438C1001 372 996 291 1022 248Z" fill="#dce5f5"/>
    <path d="M1106 456C1160 424 1228 436 1280 482C1324 520 1322 565 1272 586C1218 608 1142 600 1088 562C1048 534 1058 488 1106 456Z" fill="#83bac0"/>
    <path d="M1314 456C1380 430 1452 438 1518 474C1564 500 1562 534 1504 552C1442 573 1362 571 1306 546C1268 530 1260 490 1314 456Z" fill="#cfe6cf"/>
    <path d="M1260 366C1314 352 1368 364 1412 398C1442 420 1444 446 1408 462C1362 482 1308 478 1268 452C1240 434 1230 404 1260 366Z" fill="#4d6288" opacity="0.78"/>
  </g>

  <g fill="#e6eeff" opacity="0.8">
    <circle cx="1030" cy="188" r="2"/>
    <circle cx="1180" cy="252" r="3"/>
    <circle cx="1288" cy="298" r="2.5"/>
    <circle cx="1398" cy="350" r="3"/>
    <circle cx="1468" cy="304" r="2"/>
    <circle cx="1116" cy="620" r="2"/>
    <circle cx="1296" cy="688" r="3"/>
  </g>
</svg>
